
<svg version="1.1" xmlns="http://www.w3.org/2000/svg" 
xmlns:xlink="http://www.w3.org/1999/xlink" x="0px" y="0px" viewBox="0 0 1000 1000" 
enable-background="new 0 0 1000 1000" 
xml:space="preserve">
<g><g transform="translate(0.000000,512.000000) scale(0.100000,-0.100000)"><path d="M4622.4,5013.2C3616,4909.7,2805.1,4601.1,2044,4031.7C1447.8,3583.1,926.4,2952.4,594.7,2273.8c-176.4-362.3-262.6-594.3-352.7-958.5C127,857.1,100.2,632.8,100.2,126.7C98.2-320,113.6-484.8,186.4-851C569.8-2768,2111.1-4309.3,4028.2-4692.7c366.2-72.8,531-88.2,977.7-86.3c508,0,734.2,26.8,1190.5,141.9c370,93.9,598.1,178.3,956.6,354.6c975.8,477.4,1767.5,1269.1,2242.9,2242.9c283.7,580.9,425.6,1092.7,490.8,1763.7c26.8,274.1,11.5,795.6-30.7,1073.5c-212.8,1416.7-973.9,2618.7-2156.7,3406.6c-279.9,187.9-720.8,412.2-1025.6,525.3c-245.4,90.1-705.5,205.1-987.3,247.3C5475.5,5007.5,4796.9,5030.5,4622.4,5013.2z M5638.5,4363.4c260.7-40.3,600-126.5,826.2-210.9c230-86.3,649.9-291.4,793.7-389.2l103.5-70.9l61.3-239.6c90.1-356.6,132.3-623,168.7-1115.7l9.6-128.4l-70.9-23c-38.3-11.5-105.4-46-145.7-74.8l-76.7-51.8l-258.8,130.4c-538.7,268.4-1046.7,435.2-1631.4,534.9c-383.4,65.2-653.7,82.4-1111.9,70.9c-379.6-9.6-529.1-21.1-759.2-61.4c-55.6-9.6-67.1-1.9-128.4,82.4c-38.3,49.8-90.1,103.5-116.9,118.9c-26.8,13.4-49.8,36.4-49.8,49.8c0,99.7,385.3,902.9,552.1,1148.3c82.4,120.8,97.8,134.2,186,157.2c107.4,28.8,508,95.8,642.2,109.3C4804.6,4415.1,5452.5,4392.1,5638.5,4363.4z M3253.7,3774.8c-90.1-182.1-195.5-417.9-235.8-523.3l-69-191.7l-93.9-11.5c-199.4-24.9-394.9-164.9-473.5-339.3l-34.5-76.7l-205.1-11.5c-111.2-7.7-306.7-24.9-433.3-40.3c-124.6-15.3-232-24.9-233.9-21.1c-3.8,3.8,53.7,84.4,126.5,178.3c348.9,452.4,801.3,843.5,1305.5,1127.2c145.7,82.4,471.6,237.7,500.4,239.6C3412.8,4104.6,3343.8,3955,3253.7,3774.8z M8063.5,3115.4c736.2-763,1125.3-1641,1217.3-2739.4l13.4-153.4l-172.5,230c-203.2,270.3-496.5,600-692.1,778.3l-141.8,126.5l24.9,74.8c70.9,209-3.8,475.4-176.4,630.7c-51.8,46-122.7,95.8-159.1,107.4c-72.8,26.8-72.8,24.9-95.8,391.1c-13.4,195.5-51.8,471.6-95.8,678.6c-15.3,76.7-28.8,143.8-28.8,147.6C7756.8,3410.6,7910.2,3274.5,8063.5,3115.4z M5274.2,2438.7c607.7-97.8,1202-291.4,1696.6-550.2l162.9-86.3l-5.8-151.4c-9.6-201.3,28.8-314.4,151.4-448.6c51.8-55.6,118.9-113.1,151.5-126.5c74.8-30.7,72.8-49.8-7.7-368.1c-95.8-373.8-84.3-352.7-216.6-366.1c-61.3-5.8-124.6-15.3-139.9-21.1c-21.1-9.6-69,36.4-164.9,155.3C6181,1370.9,5132.4,2066.7,4018.6,2388.8c-310.6,90.1-230,103.5,527.2,95.8C4919.6,2478.9,5080.6,2469.3,5274.2,2438.7z M1952,2243.1c-184-84.4-488.8-256.9-707.4-400.7c-105.4-70.9-203.2-136.1-216.6-143.8c-34.5-21.1-9.6,47.9,105.4,289.5l101.6,212.8l132.3,23c220.5,38.3,509.9,74.8,609.6,74.8l95.9,1.9L1952,2243.1z M3913.1,2099.3c671-191.7,1307.4-517.6,1888.3-966.2c209-161,709.3-653.7,870.3-856.9L6781,140.1L6723.5,50c-138-218.6-113.1-534.9,55.6-709.3l57.5-59.4l-90.1-141.8c-274.1-442.9-674.8-906.8-1098.5-1267.2c-151.5-128.4-542.5-419.8-563.6-419.8c-7.7,0-51.8,26.8-99.7,57.5c-195.5,136.1-402.6,151.4-642.2,49.8c-21.1-9.6-65.2,32.6-164.9,155.3C3514.4-1458.7,3129.1-546.2,2981.5,538.9C2952.7,744,2947,1516.6,2970,1714c15.3,122.7,19.2,128.4,67.1,128.4c67.1,0,226.2,74.8,306.7,143.8c34.5,28.8,84.4,90.1,111.2,136.1C3512.5,2220.1,3487.6,2222,3913.1,2099.3z M2475.4,2038c34.5-40.3,93.9-90.1,132.3-109.3l70.9-38.3l-15.3-182.1c-28.8-345.1-13.4-1019.9,30.7-1317c103.5-718.9,335.5-1416.7,665.2-2007.1c143.8-258.8,396.8-638.4,552.1-826.2c199.4-241.5,191.7-226.2,153.4-301c-19.2-36.4-36.4-124.6-42.2-208.9l-7.7-145.7l-253-78.6c-389.2-122.7-648-180.2-994.9-222.4l-203.2-24.9l-187.9,143.8c-253,193.6-615.4,561.7-803.2,812.8c-444.7,594.3-703.5,1211.6-826.2,1961.1c-46,287.6-46,970,0,1246.1c69,398.7,63.3,385.3,212.8,509.9c335.5,278,774.5,554,1200.1,749.6c132.3,59.4,243.5,111.2,247.3,111.2C2410.2,2110.8,2442.8,2078.2,2475.4,2038z M8362.6,860.9c345.1-352.7,619.2-703.5,828.2-1060.1l80.5-136.1l-38.3-228.1c-109.3-667.1-354.6-1265.2-745.7-1811.6c-63.3-90.1-153.4-205.1-201.3-258.8l-84.3-95.9l-11.5,95.9c-93.9,707.4-212.8,1171.3-435.1,1692.7l-92,220.5l47.9,57.5c90.1,107.3,128.4,207,138,358.5c9.6,184-40.2,329.7-159.1,452.4l-80.5,86.3l63.3,218.5c36.4,122.7,78.6,293.3,97.8,383.4c32.6,155.3,36.4,162.9,92,174.5c30.7,7.7,95.8,32.6,143.8,57.5c47.9,24.9,92,44.1,97.8,46C8109.6,1114,8226.5,999,8362.6,860.9z M7480.8-1077.2c224.3-532.9,360.4-1100.4,410.3-1710l19.2-249.2l-51.8-44.1c-419.8-352.7-770.7-577-1177.1-749.6c-270.3-115-268.4-115-490.8-13.4c-339.3,155.3-912.5,490.8-981.5,575.1c-15.3,19.2-13.4,57.5,9.6,145.7c19.2,76.7,24.9,149.5,17.3,209l-11.5,92l97.8,63.3c594.3,381.5,1236.5,1039,1658.2,1694.7L7105-870.2h143.8h143.8L7480.8-1077.2z M4206.4-3431.3c186-164.9,465.8-209,671-109.3l103.5,49.8l262.6-176.4c143.8-95.9,360.4-226.2,481.2-289.5l220.5-113.1l-172.5-34.5c-699.7-134.2-1468.5-76.7-2166.3,161c-189.8,65.2-609.6,245.4-596.2,258.8c3.8,3.8,109.3,28.8,235.8,53.7c247.3,49.8,640.3,159.1,786,220.5c49.8,19.2,95.8,36.4,99.7,36.4C4135.5-3371.9,4168.1-3398.7,4206.4-3431.3z"/></g></g>
</svg>